<mxfile host="app.diagrams.net" modified="2021-11-08T03:12:39.312Z" agent="5.0 (Windows NT 10.0; Win64; x64) AppleWebKit/537.36 (KHTML, like Gecko) Chrome/95.0.4638.54 Safari/537.36" etag="zYo-XdbETzvv0Pg6yB3D" version="15.7.0" type="github">
  <diagram id="vQa0UK7cVDjbRzNiRnig" name="Page-1">
    <mxGraphModel dx="1422" dy="761" grid="1" gridSize="10" guides="1" tooltips="1" connect="1" arrows="1" fold="1" page="1" pageScale="1" pageWidth="827" pageHeight="1169" math="0" shadow="0">
      <root>
        <mxCell id="0" />
        <mxCell id="1" parent="0" />
        <mxCell id="N0fhQJl8wkR4kek2PvLo-1" value="" style="shape=process;whiteSpace=wrap;html=1;backgroundOutline=1;" vertex="1" parent="1">
          <mxGeometry x="110" y="130" width="60" height="60" as="geometry" />
        </mxCell>
        <mxCell id="N0fhQJl8wkR4kek2PvLo-2" value="" style="shape=cube;whiteSpace=wrap;html=1;boundedLbl=1;backgroundOutline=1;darkOpacity=0.05;darkOpacity2=0.1;" vertex="1" parent="1">
          <mxGeometry x="580" y="480" width="120" height="80" as="geometry" />
        </mxCell>
        <mxCell id="N0fhQJl8wkR4kek2PvLo-10" style="edgeStyle=orthogonalEdgeStyle;rounded=0;orthogonalLoop=1;jettySize=auto;html=1;" edge="1" parent="1" source="N0fhQJl8wkR4kek2PvLo-4" target="N0fhQJl8wkR4kek2PvLo-2">
          <mxGeometry relative="1" as="geometry" />
        </mxCell>
        <mxCell id="N0fhQJl8wkR4kek2PvLo-4" value="" style="shape=internalStorage;whiteSpace=wrap;html=1;dx=15;dy=15;rounded=1;arcSize=8;strokeWidth=2;rotation=15;" vertex="1" parent="1">
          <mxGeometry x="150" y="400" width="70" height="70" as="geometry" />
        </mxCell>
        <mxCell id="N0fhQJl8wkR4kek2PvLo-5" style="edgeStyle=orthogonalEdgeStyle;rounded=0;orthogonalLoop=1;jettySize=auto;html=1;entryX=0;entryY=0.5;entryDx=0;entryDy=0;" edge="1" parent="1" source="N0fhQJl8wkR4kek2PvLo-4" target="N0fhQJl8wkR4kek2PvLo-4">
          <mxGeometry relative="1" as="geometry" />
        </mxCell>
        <mxCell id="N0fhQJl8wkR4kek2PvLo-17" value="" style="endArrow=none;dashed=1;html=1;dashPattern=1 3;strokeWidth=2;rounded=0;" edge="1" parent="1" source="N0fhQJl8wkR4kek2PvLo-2" target="N0fhQJl8wkR4kek2PvLo-1">
          <mxGeometry width="50" height="50" relative="1" as="geometry">
            <mxPoint x="600" y="390" as="sourcePoint" />
            <mxPoint x="650" y="340" as="targetPoint" />
          </mxGeometry>
        </mxCell>
      </root>
    </mxGraphModel>
  </diagram>
</mxfile>
